<mxfile host="65bd71144e">
    <diagram id="NMyGQaN1fBJaaDGG94qu" name="Page-1">
        <mxGraphModel dx="2973" dy="1447" grid="1" gridSize="10" guides="1" tooltips="1" connect="1" arrows="1" fold="1" page="1" pageScale="1" pageWidth="850" pageHeight="1100" math="0" shadow="0">
            <root>
                <mxCell id="0"/>
                <mxCell id="1" parent="0"/>
                <mxCell id="2" value="&lt;font style=&quot;font-size: 30px;&quot;&gt;CreateRouteBrowser&lt;/font&gt;" style="rounded=1;whiteSpace=wrap;html=1;" vertex="1" parent="1">
                    <mxGeometry x="250" y="80" width="330" height="150" as="geometry"/>
                </mxCell>
                <mxCell id="3" value="" style="shape=flexArrow;endArrow=classic;html=1;exitX=0.5;exitY=1;exitDx=0;exitDy=0;width=6.666666666666667;endSize=23.6;endWidth=8.88888888888889;" edge="1" parent="1" source="2">
                    <mxGeometry width="50" height="50" relative="1" as="geometry">
                        <mxPoint x="420" y="240" as="sourcePoint"/>
                        <mxPoint x="415" y="410" as="targetPoint"/>
                    </mxGeometry>
                </mxCell>
                <mxCell id="4" value="App" style="ellipse;whiteSpace=wrap;html=1;aspect=fixed;fontSize=30;" vertex="1" parent="1">
                    <mxGeometry x="330" y="410" width="170" height="170" as="geometry"/>
                </mxCell>
                <mxCell id="6" value="" style="edgeStyle=segmentEdgeStyle;endArrow=classic;html=1;curved=0;rounded=0;endSize=8;startSize=8;fontSize=30;exitX=0.39;exitY=0.992;exitDx=0;exitDy=0;exitPerimeter=0;" edge="1" parent="1" source="4">
                    <mxGeometry width="50" height="50" relative="1" as="geometry">
                        <mxPoint x="310" y="690" as="sourcePoint"/>
                        <mxPoint x="340" y="680" as="targetPoint"/>
                    </mxGeometry>
                </mxCell>
                <mxCell id="7" value="" style="edgeStyle=segmentEdgeStyle;endArrow=classic;html=1;curved=0;rounded=0;endSize=8;startSize=8;fontSize=30;exitX=0.39;exitY=0.992;exitDx=0;exitDy=0;exitPerimeter=0;" edge="1" parent="1">
                    <mxGeometry width="50" height="50" relative="1" as="geometry">
                        <mxPoint x="410.00000000000017" y="580.0200000000001" as="sourcePoint"/>
                        <mxPoint x="560" y="670" as="targetPoint"/>
                    </mxGeometry>
                </mxCell>
                <mxCell id="8" value="SinglePage" style="ellipse;whiteSpace=wrap;html=1;aspect=fixed;fontSize=30;" vertex="1" parent="1">
                    <mxGeometry x="10" y="690" width="170" height="170" as="geometry"/>
                </mxCell>
                <mxCell id="9" value="Catologue" style="ellipse;whiteSpace=wrap;html=1;aspect=fixed;fontSize=30;" vertex="1" parent="1">
                    <mxGeometry x="255" y="690" width="170" height="170" as="geometry"/>
                </mxCell>
                <mxCell id="10" value="Complation" style="ellipse;whiteSpace=wrap;html=1;aspect=fixed;fontSize=30;" vertex="1" parent="1">
                    <mxGeometry x="470" y="680" width="170" height="170" as="geometry"/>
                </mxCell>
                <mxCell id="11" value="MyMovies" style="ellipse;whiteSpace=wrap;html=1;aspect=fixed;fontSize=30;" vertex="1" parent="1">
                    <mxGeometry x="680" y="680" width="170" height="170" as="geometry"/>
                </mxCell>
                <mxCell id="12" value="Search" style="ellipse;whiteSpace=wrap;html=1;aspect=fixed;fontSize=30;" vertex="1" parent="1">
                    <mxGeometry x="870" y="680" width="170" height="170" as="geometry"/>
                </mxCell>
                <mxCell id="13" value="Home" style="ellipse;whiteSpace=wrap;html=1;aspect=fixed;fontSize=30;" vertex="1" parent="1">
                    <mxGeometry x="-210" y="690" width="170" height="170" as="geometry"/>
                </mxCell>
                <mxCell id="14" value="" style="edgeStyle=segmentEdgeStyle;endArrow=classic;html=1;curved=0;rounded=0;endSize=8;startSize=8;fontSize=30;" edge="1" parent="1">
                    <mxGeometry width="50" height="50" relative="1" as="geometry">
                        <mxPoint x="400" y="580" as="sourcePoint"/>
                        <mxPoint x="100" y="681.38" as="targetPoint"/>
                    </mxGeometry>
                </mxCell>
                <mxCell id="15" value="" style="edgeStyle=segmentEdgeStyle;endArrow=classic;html=1;curved=0;rounded=0;endSize=8;startSize=8;fontSize=30;exitX=0.5;exitY=1;exitDx=0;exitDy=0;" edge="1" parent="1" source="4">
                    <mxGeometry width="50" height="50" relative="1" as="geometry">
                        <mxPoint x="-63.69999999999982" y="578.6400000000001" as="sourcePoint"/>
                        <mxPoint x="-120" y="680" as="targetPoint"/>
                    </mxGeometry>
                </mxCell>
                <mxCell id="18" value="" style="edgeStyle=segmentEdgeStyle;endArrow=classic;html=1;curved=0;rounded=0;endSize=8;startSize=8;fontSize=30;" edge="1" parent="1">
                    <mxGeometry width="50" height="50" relative="1" as="geometry">
                        <mxPoint x="540" y="580" as="sourcePoint"/>
                        <mxPoint x="760" y="670" as="targetPoint"/>
                    </mxGeometry>
                </mxCell>
                <mxCell id="19" value="" style="edgeStyle=segmentEdgeStyle;endArrow=classic;html=1;curved=0;rounded=0;endSize=8;startSize=8;fontSize=30;" edge="1" parent="1">
                    <mxGeometry width="50" height="50" relative="1" as="geometry">
                        <mxPoint x="740" y="580" as="sourcePoint"/>
                        <mxPoint x="960" y="670" as="targetPoint"/>
                    </mxGeometry>
                </mxCell>
            </root>
        </mxGraphModel>
    </diagram>
</mxfile>